<?xml version="1.0" encoding="utf-8"?>
<!-- Generator: Adobe Illustrator 16.0.0, SVG Export Plug-In . SVG Version: 6.00 Build 0)  -->
<!DOCTYPE svg PUBLIC "-//W3C//DTD SVG 1.1//EN" "http://www.w3.org/Graphics/SVG/1.1/DTD/svg11.dtd">
<svg version="1.1" id="Layer_1" xmlns="http://www.w3.org/2000/svg" xmlns:xlink="http://www.w3.org/1999/xlink" x="0px" y="0px"
	 width="320px" height="160.929px" viewBox="0 0 320 160.929" enable-background="new 0 0 320 160.929" xml:space="preserve">
<polygon fill="#231F20" points="16.268,60.263 10.007,60.263 10.007,64.58 16.046,64.58 16.046,67.128 10.007,67.128 10.007,75.681 
	7.295,75.681 7.295,57.715 16.268,57.715 "/>
<path fill="#231F20" d="M28.776,71.316h-7.691l-2.002,4.364h-2.92l8.89-19.095l8.576,19.095h-2.968L28.776,71.316z M27.671,68.769
	l-2.665-6.109l-2.793,6.109H27.671z"/>
<path fill="#231F20" d="M48.314,58.68v3.211c-1.567-1.311-3.188-1.966-4.864-1.966c-1.846,0-3.402,0.663-4.666,1.99
	c-1.272,1.319-1.908,2.932-1.908,4.84c0,1.885,0.636,3.476,1.908,4.771c1.272,1.296,2.831,1.944,4.678,1.944
	c0.954,0,1.765-0.156,2.432-0.466c0.372-0.155,0.758-0.365,1.158-0.628c0.399-0.264,0.82-0.582,1.262-0.954v3.269
	c-1.551,0.877-3.181,1.315-4.887,1.315c-2.568,0-4.759-0.896-6.575-2.688c-1.808-1.807-2.711-3.987-2.711-6.539
	c0-2.288,0.756-4.329,2.269-6.121c1.862-2.195,4.271-3.293,7.226-3.293C45.25,57.365,46.809,57.803,48.314,58.68"/>
<path fill="#231F20" d="M54.446,57.714v10.822c0,1.543,0.252,2.672,0.757,3.386c0.752,1.032,1.811,1.547,3.176,1.547
	c1.374,0,2.436-0.515,3.189-1.547c0.504-0.69,0.756-1.819,0.756-3.386V57.714h2.711V69.28c0,1.893-0.589,3.453-1.768,4.678
	c-1.327,1.365-2.956,2.048-4.888,2.048s-3.557-0.683-4.875-2.048c-1.18-1.225-1.769-2.785-1.769-4.678V57.714H54.446z"/>
<polygon fill="#231F20" points="72.052,57.714 72.052,73.132 77.335,73.132 77.335,75.68 69.341,75.68 69.341,57.714 "/>
<polygon fill="#231F20" points="83.7,60.263 83.7,75.681 80.989,75.681 80.989,60.263 76.858,60.263 76.858,57.715 87.819,57.715 
	87.819,60.263 "/>
<path fill="#231F20" d="M99.816,71.316h-7.691l-2.002,4.364h-2.92l8.89-19.095l8.576,19.095h-2.968L99.816,71.316z M98.711,68.769
	l-2.665-6.109l-2.793,6.109H98.711z"/>
<path fill="#231F20" d="M106.915,75.68V57.714h3.77c1.808,0,3.235,0.178,4.282,0.535c1.125,0.349,2.145,0.943,3.061,1.78
	c1.854,1.692,2.781,3.914,2.781,6.668c0,2.762-0.966,4.996-2.898,6.703c-0.97,0.853-1.986,1.446-3.048,1.78
	c-0.993,0.334-2.402,0.5-4.224,0.5H106.915z M109.625,73.132h1.222c1.218,0,2.23-0.128,3.037-0.384
	c0.807-0.271,1.536-0.702,2.188-1.292c1.334-1.218,2.001-2.804,2.001-4.759c0-1.97-0.659-3.568-1.978-4.794
	c-1.187-1.094-2.936-1.641-5.248-1.641h-1.222V73.132z"/>
<path fill="#231F20" d="M15.43,104.562V86.595h3.77c1.808,0,3.235,0.179,4.282,0.535c1.125,0.35,2.145,0.943,3.061,1.78
	c1.854,1.692,2.781,3.914,2.781,6.668c0,2.763-0.966,4.996-2.898,6.703c-0.97,0.853-1.986,1.446-3.048,1.78
	c-0.993,0.334-2.402,0.5-4.224,0.5H15.43z M18.141,102.013h1.222c1.218,0,2.23-0.127,3.037-0.383
	c0.807-0.271,1.536-0.703,2.188-1.293c1.334-1.218,2.001-2.804,2.001-4.759c0-1.97-0.659-3.567-1.978-4.794
	c-1.187-1.094-2.936-1.641-5.248-1.641h-1.222V102.013z"/>
<polygon fill="#231F20" points="42.647,89.144 35.444,89.144 35.444,93.46 42.438,93.46 42.438,96.009 35.444,96.009 
	35.444,102.014 42.647,102.014 42.647,104.562 32.733,104.562 32.733,86.596 42.647,86.596 "/>
<path fill="#231F20" d="M64.116,100.197h-7.691l-2.002,4.364h-2.92l8.89-19.096l8.576,19.096h-2.968L64.116,100.197z M63.011,97.649
	l-2.665-6.109l-2.793,6.109H63.011z"/>
<path fill="#231F20" d="M77.301,96.905l5.562,7.656h-3.316l-5.132-7.354h-0.489v7.354h-2.711V86.595h3.177
	c2.373,0,4.088,0.446,5.143,1.338c1.163,0.994,1.745,2.305,1.745,3.934c0,1.271-0.364,2.366-1.093,3.282
	C79.457,96.063,78.495,96.649,77.301,96.905 M73.926,94.845h0.861c2.568,0,3.852-0.98,3.852-2.943c0-1.84-1.249-2.758-3.747-2.758
	h-0.966V94.845z"/>
<polygon fill="#231F20" points="90.31,89.144 90.31,104.562 87.599,104.562 87.599,89.144 83.468,89.144 83.468,86.596 
	94.429,86.596 94.429,89.144 "/>
<polygon fill="#231F20" points="106.764,89.144 99.561,89.144 99.561,93.46 106.555,93.46 106.555,96.009 99.561,96.009 
	99.561,102.014 106.764,102.014 106.764,104.562 96.85,104.562 96.85,86.596 106.764,86.596 "/>
<path fill="#231F20" d="M120.483,89.271l-2.199,1.304c-0.411-0.715-0.803-1.18-1.176-1.396c-0.387-0.248-0.888-0.373-1.5-0.373
	c-0.753,0-1.377,0.214-1.874,0.64c-0.497,0.419-0.745,0.947-0.745,1.583c0,0.877,0.652,1.582,1.955,2.118l1.792,0.733
	c1.459,0.589,2.525,1.309,3.2,2.158c0.675,0.85,1.013,1.891,1.013,3.125c0,1.651-0.551,3.018-1.653,4.096
	c-1.109,1.086-2.486,1.629-4.13,1.629c-1.56,0-2.848-0.463-3.864-1.385c-1.001-0.924-1.625-2.223-1.873-3.898l2.746-0.605
	c0.124,1.056,0.341,1.785,0.652,2.188c0.558,0.774,1.373,1.163,2.443,1.163c0.846,0,1.548-0.283,2.107-0.85
	c0.558-0.565,0.837-1.283,0.837-2.152c0-0.35-0.048-0.669-0.146-0.96c-0.096-0.291-0.248-0.558-0.453-0.804
	c-0.206-0.244-0.471-0.473-0.797-0.687c-0.326-0.213-0.714-0.417-1.164-0.61l-1.733-0.722c-2.46-1.039-3.689-2.56-3.689-4.562
	c0-1.35,0.516-2.479,1.547-3.385c1.032-0.916,2.316-1.373,3.852-1.373C117.702,86.247,119.319,87.255,120.483,89.271"/>
<polygon fill="#231F20" points="12.917,125.682 7.051,115.477 10.17,115.477 14.277,122.655 18.397,115.477 21.516,115.477 
	15.627,125.682 15.627,133.442 12.917,133.442 "/>
<path fill="#231F20" d="M30.941,133.442v-17.966h3.77c1.808,0,3.235,0.178,4.282,0.535c1.125,0.349,2.145,0.942,3.061,1.78
	c1.854,1.691,2.781,3.914,2.781,6.668c0,2.762-0.966,4.996-2.898,6.703c-0.97,0.853-1.986,1.445-3.048,1.779
	c-0.993,0.334-2.402,0.5-4.224,0.5H30.941z M33.652,130.895h1.222c1.218,0,2.23-0.128,3.037-0.384
	c0.807-0.271,1.536-0.702,2.188-1.292c1.334-1.218,2.001-2.804,2.001-4.759c0-1.971-0.659-3.568-1.978-4.795
	c-1.187-1.094-2.936-1.641-5.248-1.641h-1.222V130.895z"/>
<rect x="48.245" y="115.478" fill="#231F20" width="2.711" height="17.966"/>
<path fill="#231F20" d="M65.431,118.153l-2.199,1.303c-0.411-0.715-0.803-1.18-1.176-1.396c-0.387-0.248-0.888-0.373-1.5-0.373
	c-0.753,0-1.377,0.215-1.874,0.641c-0.497,0.418-0.745,0.947-0.745,1.582c0,0.877,0.652,1.582,1.955,2.119l1.792,0.732
	c1.459,0.589,2.525,1.309,3.2,2.159c0.675,0.849,1.013,1.89,1.013,3.124c0,1.652-0.551,3.018-1.653,4.096
	c-1.109,1.086-2.486,1.629-4.13,1.629c-1.56,0-2.848-0.462-3.864-1.385c-1.001-0.923-1.625-2.223-1.873-3.898l2.746-0.604
	c0.124,1.056,0.341,1.784,0.652,2.188c0.558,0.774,1.373,1.162,2.443,1.162c0.846,0,1.548-0.283,2.107-0.85
	c0.558-0.564,0.837-1.283,0.837-2.152c0-0.349-0.048-0.668-0.146-0.959c-0.096-0.291-0.248-0.559-0.453-0.804
	c-0.206-0.244-0.471-0.474-0.797-0.687c-0.326-0.213-0.714-0.418-1.164-0.61l-1.733-0.722c-2.46-1.039-3.689-2.561-3.689-4.562
	c0-1.351,0.516-2.479,1.547-3.386c1.032-0.916,2.316-1.373,3.852-1.373C62.65,115.128,64.267,116.136,65.431,118.153"/>
<polygon fill="#231F20" points="79.081,118.024 71.878,118.024 71.878,122.342 78.872,122.342 78.872,124.89 71.878,124.89 
	71.878,130.896 79.081,130.896 79.081,133.442 69.167,133.442 69.167,115.478 79.081,115.478 "/>
<path fill="#231F20" d="M82.642,133.442v-19.188l13.102,13.707v-12.484h2.711v19.06l-13.102-13.673v12.578H82.642z M87.238,113.673
	l-1.524-1.292l0.337-0.478c0.217-0.31,0.427-0.571,0.628-0.784c0.202-0.214,0.408-0.388,0.617-0.524
	c0.21-0.135,0.427-0.232,0.652-0.291c0.225-0.058,0.469-0.087,0.733-0.087c0.605,0,1.307,0.202,2.106,0.604
	c0.807,0.412,1.326,0.617,1.559,0.617c0.435,0,0.916-0.418,1.443-1.257l1.478,1.233c-0.744,1.49-1.753,2.234-3.025,2.234
	c-0.435,0-1.145-0.218-2.13-0.651c-0.706-0.356-1.233-0.535-1.582-0.535C88.103,112.463,87.673,112.866,87.238,113.673"/>
<path fill="#231F20" d="M102.028,124.378c0-2.529,0.926-4.701,2.78-6.516c1.847-1.816,4.065-2.723,6.657-2.723
	c2.56,0,4.755,0.914,6.586,2.746c1.838,1.83,2.757,4.029,2.757,6.598c0,2.582-0.922,4.775-2.769,6.574
	c-1.854,1.808-4.092,2.711-6.714,2.711c-2.32,0-4.402-0.803-6.249-2.408C103.044,129.583,102.028,127.256,102.028,124.378
	 M104.762,124.413c0,1.986,0.667,3.619,2.001,4.898c1.327,1.281,2.859,1.92,4.597,1.92c1.885,0,3.475-0.651,4.771-1.954
	c1.295-1.319,1.943-2.925,1.943-4.818c0-1.916-0.64-3.521-1.92-4.817c-1.272-1.303-2.847-1.955-4.725-1.955
	c-1.869,0-3.448,0.652-4.735,1.955C105.406,120.931,104.762,122.521,104.762,124.413"/>
<path fill="#231F20" d="M49.135,16.373v10.073c0,2.305-0.095,4.586-1.877,6.32c-1.497,1.473-3.849,1.996-5.939,1.996
	c-2.091,0-4.443-0.523-5.94-1.996c-1.782-1.734-1.877-4.015-1.877-6.32V16.373h4.657v9.432c0,2.328,0.166,4.87,3.16,4.87
	c2.993,0,3.16-2.542,3.16-4.87v-9.432H49.135z"/>
<polygon fill="#231F20" points="54.457,16.373 59.113,16.373 67.643,27.326 67.689,27.326 67.689,16.373 72.347,16.373 
	72.347,34.287 67.689,34.287 59.161,23.31 59.113,23.31 59.113,34.287 54.457,34.287 "/>
<path fill="#231F20" d="M82.324,31.175l-1.235,3.112h-4.942l6.89-17.914h5.084l6.747,17.914h-4.965l-1.164-3.112H82.324z
	 M85.579,21.909h-0.047l-1.925,5.702h3.872L85.579,21.909z"/>
<polygon fill="#231F20" points="100.664,16.373 105.249,16.373 108.885,25.948 112.733,16.373 117.366,16.373 120.075,34.287 
	115.418,34.287 114.111,23.976 114.064,23.976 109.764,34.287 107.911,34.287 103.8,23.976 103.753,23.976 102.256,34.287 
	97.623,34.287 "/>
<path fill="#231F20" d="M274.715,17.584c-18.215-9.538-39.298-8.387-39.298-8.387v40.099l-21.542-38.401
	c-0.029-0.052-0.068-0.092-0.1-0.142c-0.055-0.09-0.107-0.18-0.168-0.265c-0.054-0.075-0.111-0.147-0.17-0.219
	c-0.066-0.082-0.135-0.16-0.205-0.235c-0.064-0.07-0.129-0.138-0.198-0.204c-0.066-0.062-0.136-0.122-0.206-0.181
	c-0.081-0.067-0.163-0.132-0.248-0.193c-0.084-0.061-0.17-0.118-0.26-0.173c-0.039-0.025-0.071-0.058-0.112-0.082
	c-0.037-0.022-0.076-0.032-0.113-0.052c-0.084-0.045-0.168-0.087-0.255-0.128c-0.104-0.047-0.206-0.089-0.313-0.129
	c-0.087-0.033-0.173-0.066-0.261-0.093c-0.082-0.026-0.165-0.045-0.248-0.065c-0.108-0.026-0.217-0.049-0.328-0.068
	c-0.094-0.015-0.186-0.033-0.279-0.042c-0.094-0.01-0.188-0.01-0.283-0.014c-0.061-0.003-0.118-0.018-0.18-0.018H134.75v127.02
	c0,2.486,2.014,4.5,4.5,4.5c1.617,0,3.023-1.027,3.817-2.316c0.046-0.063,0.099-0.109,0.141-0.184l40.042-67.191h52.167v80.75
	c0,0,22.229,1.625,40.208-9.25c15.679-9.483,35.875-29.751,35.875-61.375C311.5,45.958,290.646,25.928,274.715,17.584
	 M176.81,60.046h-31.518V18.921h55.14L176.81,60.046z M278.841,126.979L245.25,67.421v-47.5c5.732,0.683,12.62,1.142,22.875,6.25
	C288.229,36.186,301,57.111,301,81.183C301,100.421,293.431,112.208,278.841,126.979"/>
<polygon fill="#EC1C24" points="145.292,115.559 145.625,70.421 171.582,70.421 "/>
<polygon fill="#FFF100" points="189.125,60.047 209.598,24.703 229.5,60.047 "/>
<path fill="#008FD5" d="M245.25,141.354V86.958l24.79,45.802C260.085,138.188,250.927,140.45,245.25,141.354"/>
</svg>
